HIERARCHY
ROOT joint_Root
{
	OFFSET 0.0 0.0 0.0
	CHANNELS 6 Xposition Yposition Zposition Zrotation Xrotation Yrotation 
	JOINT Hips
	{
		OFFSET -17.1583 93.1646 452.98
		CHANNELS 6 Xposition Yposition Zposition Zrotation Xrotation Yrotation 
		JOINT Spine
		{
			OFFSET 15.7357 0.0 0.0
			CHANNELS 6 Xposition Yposition Zposition Zrotation Xrotation Yrotation 
			JOINT Chest
			{
				OFFSET 8.98455 -0.406207 0.0
				CHANNELS 6 Xposition Yposition Zposition Zrotation Xrotation Yrotation 
				JOINT Neck
				{
					OFFSET 16.3773 0.0 0.0
					CHANNELS 6 Xposition Yposition Zposition Zrotation Xrotation Yrotation 
					JOINT Head
					{
						OFFSET 6.45672 0.0 0.0
						CHANNELS 6 Xposition Yposition Zposition Zrotation Xrotation Yrotation 
						End Site
						{
							OFFSET 0.0 0.0 0.0
						}
					}
				}
				JOINT Shoulder_L
				{
					OFFSET 12.9942 -0.242716 4.98039
					CHANNELS 6 Xposition Yposition Zposition Zrotation Xrotation Yrotation 
					JOINT UpperArm_L
					{
						OFFSET 5.34809 0.0 0.0
						CHANNELS 6 Xposition Yposition Zposition Zrotation Xrotation Yrotation 
						JOINT LowerArm_L
						{
							OFFSET 24.3286 1.87007e-05 0.0
							CHANNELS 6 Xposition Yposition Zposition Zrotation Xrotation Yrotation 
							JOINT Hand_L
							{
								OFFSET 22.2916 0.0 0.0
								CHANNELS 6 Xposition Yposition Zposition Zrotation Xrotation Yrotation 
								End Site
								{
									OFFSET 0.0 0.0 0.0
								}
							}
						}
					}
				}
				JOINT Shoulder_R
				{
					OFFSET 12.9945 -0.242716 -4.98039
					CHANNELS 6 Xposition Yposition Zposition Zrotation Xrotation Yrotation 
					JOINT UpperArm_R
					{
						OFFSET -5.34813 0.0 0.0
						CHANNELS 6 Xposition Yposition Zposition Zrotation Xrotation Yrotation 
						JOINT LowerArm_R
						{
							OFFSET -24.3289 0.000322201 0.0
							CHANNELS 6 Xposition Yposition Zposition Zrotation Xrotation Yrotation 
							JOINT Hand_R
							{
								OFFSET -22.2915 -0.000108084 0.0
								CHANNELS 6 Xposition Yposition Zposition Zrotation Xrotation Yrotation 
								End Site
								{
									OFFSET 0.0 0.0 0.0
								}
							}
						}
					}
				}
			}
		}
		JOINT UpperLeg_L
		{
			OFFSET -2.19248 -6.46944 0.0
			CHANNELS 6 Xposition Yposition Zposition Zrotation Xrotation Yrotation 
			JOINT LowerLeg_L
			{
				OFFSET 39.0811 0.0 -1.23785e-05
				CHANNELS 6 Xposition Yposition Zposition Zrotation Xrotation Yrotation 
				JOINT Foot_L
				{
					OFFSET 40.9854 0.0 -1.26872e-05
					CHANNELS 6 Xposition Yposition Zposition Zrotation Xrotation Yrotation 
					JOINT Toes_L
					{
						OFFSET 11.7543 0.0 0.0
						CHANNELS 6 Xposition Yposition Zposition Zrotation Xrotation Yrotation 
						End Site
						{
							OFFSET 0.0 0.0 0.0
						}
					}
				}
			}
		}
		JOINT UpperLeg_R
		{
			OFFSET -2.19251 6.46944 0.0
			CHANNELS 6 Xposition Yposition Zposition Zrotation Xrotation Yrotation 
			JOINT LowerLeg_R
			{
				OFFSET -39.0811 -0.00228153 -0.0401928
				CHANNELS 6 Xposition Yposition Zposition Zrotation Xrotation Yrotation 
				JOINT Foot_R
				{
					OFFSET -40.9854 0.0 0.0
					CHANNELS 6 Xposition Yposition Zposition Zrotation Xrotation Yrotation 
					JOINT Toes_R
					{
						OFFSET -11.7543 0.0 0.0
						CHANNELS 6 Xposition Yposition Zposition Zrotation Xrotation Yrotation 
						End Site
						{
							OFFSET 0.0 0.0 0.0
						}
					}
				}
			}
		}
	}
}
MOTION
Frames:	5
Frame Time:	0.0333333
0.000000 0.000000 0.000000 0.000000 0.000000 -0.000000 -1.641210 92.871200 -2.292520 86.847400 0.316648 0.575285 15.735700 0.000005 -0.000001 82.665600 88.004200 -80.351500 8.984550 -0.406207 -0.000000 -3.787970 -0.742440 4.605560 16.377300 -0.000001 -0.000001 4.692390 3.351490 -0.789535 6.456720 -0.000001 -0.000000 4.440860 4.422430 -5.738840 12.994200 -0.242716 4.980390 -92.972900 8.978800 -71.595000 5.348090 -0.000007 -0.000001 -72.639900 26.212100 3.379950 24.328600 0.000019 0.000005 15.563500 28.118800 -30.581000 22.291600 -0.000001 0.000005 -2.418190 5.065020 5.904340 12.994500 -0.242716 -4.980390 88.559300 4.610310 -72.625400 -5.348130 -0.000001 -0.000004 -70.301900 28.336400 -3.198330 -24.328900 0.000322 -0.000009 2.553990 8.110530 -17.551700 -22.291500 -0.000108 -0.000004 2.121760 5.252300 1.371810 -2.192480 -6.469440 -0.000000 -175.787000 1.808010 -5.528350 39.081100 -0.000007 -0.000012 0.220884 -0.554878 21.706700 40.985400 -0.000006 -0.000013 1.604750 7.752470 -71.435400 11.754300 -0.000000 0.000003 0.000589 0.157034 -10.208000 -2.192510 6.469440 -0.000001 -173.542000 7.724750 179.838000 -39.081100 -0.002282 -0.040193 0.055706 -0.224633 13.123900 -40.985400 0.000008 0.000006 1.723950 1.344750 -68.830700 -11.754300 -0.000006 -0.000006 -0.011170 0.279847 -5.201490
0.000000 0.000000 0.000000 0.000000 0.000000 -0.000000 -1.627740 92.876200 -2.273920 86.825200 0.323891 0.527822 15.735700 0.000005 -0.000001 82.579700 87.995900 -80.243600 8.984550 -0.406207 -0.000000 -3.771980 -0.752390 4.649410 16.377300 -0.000001 -0.000001 4.672270 3.344760 -0.847411 6.456720 -0.000001 -0.000000 4.307140 4.422820 -6.066580 12.994200 -0.242716 4.980390 -92.998800 9.056990 -71.593200 5.348090 -0.000007 -0.000001 -72.365200 24.988600 3.741350 24.328600 0.000019 0.000005 16.650900 28.185300 -32.342200 22.291600 -0.000001 0.000005 -2.554640 5.066390 5.873680 12.994500 -0.242716 -4.980390 88.557700 4.607270 -72.596800 -5.348130 -0.000001 -0.000004 -70.220800 28.196600 -3.231020 -24.328900 0.000322 -0.000009 2.525070 8.026870 -17.533600 -22.291500 -0.000108 -0.000004 2.100120 5.256190 1.268710 -2.192480 -6.469440 -0.000000 -175.774000 1.817980 -5.549630 39.081100 -0.000007 -0.000012 0.221358 -0.556744 21.682900 40.985400 -0.000006 -0.000013 1.618240 7.761460 -71.459200 11.754300 -0.000000 0.000003 0.000659 0.155677 -10.263100 -2.192510 6.469440 -0.000001 -173.540000 7.680120 179.805000 -39.081100 -0.002282 -0.040193 0.053567 -0.215524 13.120100 -40.985400 0.000008 0.000006 1.461200 1.341280 -68.786600 -11.754300 -0.000006 -0.000006 -0.010877 0.277747 -5.287430
0.000000 0.000000 0.000000 0.000000 0.000000 -0.000000 -1.628200 92.867700 -2.254000 86.785300 0.337252 0.491501 15.735700 0.000005 -0.000001 82.312700 87.984800 -79.949600 8.984550 -0.406207 -0.000000 -3.751700 -0.776159 4.702630 16.377300 -0.000001 -0.000001 4.595250 3.355150 -0.963091 6.456720 -0.000001 -0.000000 4.278130 4.393310 -6.445050 12.994200 -0.242716 4.980390 -93.022900 9.105230 -71.545700 5.348090 -0.000007 -0.000001 -72.016200 23.440900 4.253910 24.328600 0.000019 0.000005 17.287000 26.902200 -34.521600 22.291600 -0.000001 0.000005 -2.812740 5.052050 6.191980 12.994500 -0.242716 -4.980390 88.565500 4.569640 -72.551100 -5.348130 -0.000001 -0.000004 -70.177700 28.121200 -3.255850 -24.328900 0.000322 -0.000009 2.569300 8.160560 -17.549600 -22.291500 -0.000108 -0.000004 2.094210 5.253720 1.334280 -2.192480 -6.469440 -0.000000 -175.733000 1.828840 -5.621610 39.081100 -0.000007 -0.000012 0.223447 -0.559494 21.770800 40.985400 -0.000006 -0.000013 1.625400 7.764560 -71.509000 11.754300 -0.000000 0.000003 0.000727 0.154320 -10.318200 -2.192510 6.469440 -0.000001 -173.489000 7.702340 179.795000 -39.081100 -0.002282 -0.040193 0.054033 -0.218188 13.081400 -40.985400 0.000008 0.000006 1.626300 1.315260 -68.792900 -11.754300 -0.000006 -0.000006 -0.011260 0.280494 -5.175000
0.000000 0.000000 0.000000 0.000000 0.000000 -0.000000 -1.627710 92.860300 -2.231490 86.743400 0.323547 0.493957 15.735700 0.000005 -0.000001 82.698000 87.977900 -80.312000 8.984550 -0.406207 -0.000000 -3.734700 -0.752999 4.749310 16.377300 -0.000001 -0.000001 4.589800 3.328790 -1.093430 6.456720 -0.000001 -0.000000 4.195120 4.277650 -6.968360 12.994200 -0.242716 4.980390 -93.043700 9.138370 -71.489300 5.348090 -0.000007 -0.000001 -71.624700 21.289100 5.009490 24.328600 0.000019 0.000005 18.729600 25.823600 -37.894900 22.291600 -0.000001 0.000005 -3.237570 5.050590 6.224250 12.994500 -0.242716 -4.980390 88.568100 4.543080 -72.485200 -5.348130 -0.000001 -0.000004 -70.176400 27.991300 -3.236970 -24.328900 0.000322 -0.000009 2.539320 8.104000 -17.470100 -22.291500 -0.000108 -0.000004 2.131940 5.254480 1.314120 -2.192480 -6.469440 -0.000000 -175.683000 1.806350 -5.637270 39.081100 -0.000007 -0.000012 0.224334 -0.559500 21.848900 40.985400 -0.000006 -0.000013 1.624830 7.764370 -71.593900 11.754300 -0.000000 0.000003 0.000676 0.155348 -10.276500 -2.192510 6.469440 -0.000001 -173.452000 7.704930 179.803000 -39.081100 -0.002282 -0.040193 0.053181 -0.214069 13.108100 -40.985400 0.000008 0.000006 1.518860 1.374380 -68.775500 -11.754300 -0.000006 -0.000006 -0.010653 0.276120 -5.354010
0.000000 0.000000 0.000000 0.000000 0.000000 -0.000000 -1.635160 92.846500 -2.200800 86.679700 0.280218 0.449532 15.735700 0.000005 -0.000001 83.268400 87.978400 -80.861100 8.984550 -0.406207 -0.000000 -3.731310 -0.715012 4.793000 16.377300 -0.000001 -0.000001 4.528350 3.317710 -1.260660 6.456720 -0.000001 -0.000000 4.140780 4.167770 -7.553800 12.994200 -0.242716 4.980390 -93.060900 9.116920 -71.351800 5.348090 -0.000007 -0.000001 -71.218300 19.158800 5.928260 24.328600 0.000019 0.000005 21.682100 25.334100 -42.895900 22.291600 -0.000001 0.000005 -3.022660 5.033980 6.586480 12.994500 -0.242716 -4.980390 88.560300 4.539370 -72.381900 -5.348130 -0.000001 -0.000004 -70.143200 27.966700 -3.237590 -24.328900 0.000322 -0.000009 2.535730 8.109080 -17.436700 -22.291500 -0.000108 -0.000004 2.100240 5.255040 1.299240 -2.192480 -6.469440 -0.000000 -175.610000 1.824380 -5.721560 39.081100 -0.000007 -0.000012 0.227554 -0.563728 21.982400 40.985400 -0.000006 -0.000013 1.621660 7.742630 -71.690600 11.754300 -0.000000 0.000003 0.000690 0.155057 -10.288300 -2.192510 6.469440 -0.000001 -173.372000 7.657180 179.776000 -39.081100 -0.002282 -0.040193 0.054218 -0.218533 13.107500 -40.985400 0.000008 0.000006 1.668060 1.321280 -68.830100 -11.754300 -0.000006 -0.000006 -0.011189 0.279983 -5.195890
